<?xml version="1.0" standalone="no"?>
<!DOCTYPE svg PUBLIC "-//W3C//DTD SVG 20010904//EN"
 "http://www.w3.org/TR/2001/REC-SVG-20010904/DTD/svg10.dtd">
<svg version="1.0" xmlns="http://www.w3.org/2000/svg"
 width="260.000000pt" height="372.000000pt" viewBox="0 0 260.000000 372.000000"
 preserveAspectRatio="xMidYMid meet">

<g transform="translate(0.000000,372.000000) scale(0.100000,-0.100000)"
fill="#000000" stroke="none">
<path d="M0 1860 l0 -1860 1300 0 1300 0 -1 48 c-2 64 -13 107 -27 105 -6 -2
-9 3 -6 10 2 7 1 24 -4 38 -9 23 -10 22 -20 -15 -6 -22 -9 -43 -6 -48 3 -4 0
-8 -7 -8 -14 0 -38 30 -39 48 0 7 -9 32 -21 57 -12 25 -19 51 -16 59 3 7 1 18
-4 23 -15 15 79 7 98 -8 9 -8 23 -30 31 -49 11 -25 17 -30 20 -18 2 10 -4 32
-12 50 -20 38 -20 38 -1 38 12 0 15 18 15 105 0 65 -4 105 -10 105 -8 0 -28
33 -35 60 -7 29 -22 61 -41 91 -12 20 -26 54 -30 75 -4 22 -13 49 -21 60 -9
15 -12 35 -7 62 6 36 3 44 -21 66 -37 34 -24 51 21 25 37 -20 54 -18 54 7 0 8
4 14 9 14 10 0 8 171 -4 252 -6 45 -4 61 9 79 9 13 16 40 16 60 0 20 7 56 15
79 8 23 15 55 15 69 0 15 7 36 15 47 20 27 21 199 1 220 -11 11 -13 31 -10 83
4 44 1 71 -5 76 -6 3 -11 15 -11 26 0 24 18 16 30 -15 8 -19 9 -19 9 7 1 15
-4 27 -9 27 -7 0 -7 6 0 19 7 13 10 298 10 855 l0 835 -1300 1 -1300 0 0
-1860z m350 1831 c0 -5 -9 -11 -20 -14 -22 -6 -28 8 -7 16 19 8 27 8 27 -2z
m-50 -21 c0 -5 -7 -10 -16 -10 -8 0 -12 5 -9 10 3 6 10 10 16 10 5 0 9 -4 9
-10z m-133 -16 c-3 -3 -12 -4 -19 -1 -8 3 -5 6 6 6 11 1 17 -2 13 -5z m-137
-24 c0 -5 -4 -10 -10 -10 -5 0 -10 5 -10 10 0 6 5 10 10 10 6 0 10 -4 10 -10z
m1945 -130 c-65 -38 -97 -52 -103 -46 -3 3 4 9 14 13 10 3 22 11 25 16 13 18
65 46 89 46 21 0 16 -5 -25 -29z m-800 -920 c0 -20 6 -25 36 -28 24 -2 42 2
53 13 15 15 16 15 16 -3 0 -31 -27 -49 -52 -33 -23 14 -38 2 -38 -32 0 -10 -7
-20 -15 -23 -20 -8 -75 18 -75 35 0 11 -4 9 -14 -5 -15 -19 -16 -18 -42 7 -26
26 -26 27 -5 34 23 7 29 25 9 25 -7 0 -22 -7 -32 -15 -11 -8 -25 -15 -30 -15
-6 0 -4 4 4 10 12 7 11 10 -5 17 -15 5 -5 10 40 19 33 7 62 9 65 5 13 -19 39
-19 45 0 9 28 40 20 40 -11z m238 -13 c28 -26 34 -38 30 -60 -4 -20 -11 -27
-28 -27 -15 0 -26 -8 -30 -19 -6 -19 -60 -39 -72 -28 -8 8 7 27 21 27 14 0 36
41 36 66 0 8 -4 13 -9 10 -5 -3 -12 6 -16 21 -4 17 -2 29 7 34 20 13 24 11 61
-24z m-483 4 c0 -4 -9 -7 -20 -7 -11 0 -20 6 -20 12 0 7 8 10 20 7 11 -3 20
-8 20 -12z m787 3 c2 -6 -6 -10 -19 -9 -12 1 -24 7 -26 14 -3 8 4 12 19 9 12
-1 24 -8 26 -14z m-77 -14 c10 -6 11 -10 3 -10 -19 0 -16 -18 5 -23 11 -3 8
-5 -9 -6 -21 -1 -28 4 -31 24 -5 26 6 32 32 15z m-140 -31 c0 -5 -4 -9 -10 -9
-5 0 -10 7 -10 16 0 8 5 12 10 9 6 -3 10 -10 10 -16z m-270 -69 c0 -11 -2 -20
-4 -20 -2 0 -6 9 -9 20 -3 11 -1 20 4 20 5 0 9 -9 9 -20z m-351 -27 c19 -9 40
-20 45 -24 6 -5 26 -20 44 -35 17 -14 32 -32 32 -40 0 -24 -38 -15 -59 15 -17
23 -30 29 -74 34 -56 7 -157 44 -157 58 0 14 134 8 169 -8z m991 -3 c0 -5 -5
-10 -11 -10 -5 0 -7 5 -4 10 3 6 8 10 11 10 2 0 4 -4 4 -10z m-143 -52 c-11
-26 -24 -37 -56 -48 -22 -7 -43 -11 -46 -8 -11 11 8 38 26 38 12 0 19 7 19 20
0 15 7 20 24 20 14 0 28 5 31 11 14 22 15 0 2 -33z m83 27 c17 -20 -5 -20 -40
0 l-25 14 26 1 c15 0 32 -7 39 -15z m-1040 -47 c0 -5 -13 -8 -30 -8 -27 0 -40
17 -25 32 7 7 55 -14 55 -24z m75 1 c11 -16 -2 -22 -32 -15 -21 6 -24 9 -12
17 19 12 36 11 44 -2z m993 -14 c1 -1 -6 -5 -17 -8 -11 -3 -26 2 -32 10 -11
12 -8 13 17 7 16 -4 30 -8 32 -9z m-978 -115 c13 -11 18 -20 12 -20 -6 0 -9
-7 -6 -15 4 -9 -3 -19 -20 -26 -31 -14 -44 -6 -26 16 7 8 10 25 6 40 -8 30 3
32 34 5z m-290 -24 c0 -13 7 -29 15 -36 9 -7 13 -15 11 -17 -6 -7 -42 28 -49
49 -6 17 0 28 15 28 4 0 8 -11 8 -24z m1180 0 c0 -13 7 -29 15 -36 38 -31 8
-36 -62 -9 -25 9 -26 12 -10 20 9 6 17 16 17 24 0 12 13 22 33 24 4 1 7 -10 7
-23z m287 -19 c-1 -16 -9 -33 -17 -37 -8 -4 -25 -12 -37 -19 -28 -14 -30 -1
-3 22 12 10 20 29 20 46 0 24 3 28 20 24 15 -4 19 -13 17 -36z m-227 -97 c0
-12 -8 -12 -35 0 -18 8 -17 9 8 9 15 1 27 -3 27 -9z m40 -14 c0 -11 -19 -15
-25 -6 -3 5 1 10 9 10 9 0 16 -2 16 -4z m-503 -363 c13 -19 12 -23 -7 -33 -11
-6 -29 -8 -40 -5 -21 7 -35 39 -25 55 11 18 57 7 72 -17z m-567 -59 c0 -8 -5
-12 -10 -9 -6 4 -8 11 -5 16 9 14 15 11 15 -7z m0 -86 c0 -15 -28 -8 -34 8
-10 26 5 39 21 19 7 -11 13 -22 13 -27z m1528 -623 c29 -100 31 -111 21 -126
-6 -10 -9 -8 -9 9 0 12 -4 22 -8 22 -5 0 -17 18 -27 40 -21 47 -49 56 -39 13
3 -16 10 -41 16 -56 9 -23 8 -31 -6 -45 -16 -16 -17 -16 -10 1 3 9 2 23 -4 30
-5 6 -10 60 -11 119 -1 93 1 108 16 117 20 11 25 0 61 -124z m188 119 c-3 -9
-6 -21 -6 -27 0 -16 -20 14 -20 31 0 6 7 12 16 12 11 0 14 -5 10 -16z m-656
-148 c0 -16 -18 -31 -27 -22 -8 8 5 36 17 36 5 0 10 -6 10 -14z m-94 -63 c-5
-11 -1 -13 15 -8 15 5 19 4 15 -4 -4 -6 -14 -11 -22 -11 -8 0 -14 -5 -14 -12
0 -19 -31 -48 -52 -48 -24 0 -23 27 2 40 11 6 19 17 18 23 -4 16 24 47 35 40
5 -3 6 -12 3 -20z m-573 -10 c-7 -2 -19 -2 -25 0 -7 3 -2 5 12 5 14 0 19 -2
13 -5z m1204 -155 c-3 -8 -6 -5 -6 6 -1 11 2 17 5 13 3 -3 4 -12 1 -19z m193
-258 l0 -78 -52 2 -53 1 -3 63 c-3 60 -2 62 21 62 13 0 34 9 47 20 12 11 27
17 31 14 5 -3 9 -40 9 -84z m-120 76 c0 -3 -4 -8 -10 -11 -5 -3 -10 -1 -10 4
0 6 5 11 10 11 6 0 10 -2 10 -4z m-30 -51 c0 -19 -3 -35 -7 -35 -7 0 -9 45 -4
65 4 18 11 -1 11 -30z m-3 -81 c-2 -2 -12 -1 -22 3 -18 6 -18 7 1 13 17 7 33
-5 21 -16z m-1540 -336 c-3 -8 -6 -5 -6 6 -1 11 2 17 5 13 3 -3 4 -12 1 -19z"/>
<path d="M2508 453 c-3 -5 -3 -14 -2 -20 1 -7 2 -22 3 -33 2 -35 21 -22 21 14
0 33 -14 56 -22 39z"/>
<path d="M2480 850 c0 -11 2 -20 4 -20 2 0 6 9 9 20 3 11 1 20 -4 20 -5 0 -9
-9 -9 -20z"/>
<path d="M2473 298 c2 -7 8 -13 13 -13 5 0 15 -4 22 -9 11 -7 12 -4 3 13 -12
22 -46 30 -38 9z"/>
</g>
</svg>
