<?xml version="1.0" standalone="no"?>
<!DOCTYPE svg PUBLIC "-//W3C//DTD SVG 20010904//EN"
 "http://www.w3.org/TR/2001/REC-SVG-20010904/DTD/svg10.dtd">
<svg version="1.0" xmlns="http://www.w3.org/2000/svg"
 width="915.000000pt" height="877.000000pt" viewBox="0 0 915.000000 877.000000"
 preserveAspectRatio="xMidYMid meet">

<g transform="translate(0.000000,877.000000) scale(0.100000,-0.100000)"
fill="#000000" stroke="none">
<path d="M0 4385 l0 -4385 2295 0 c2035 0 2294 2 2289 15 -4 8 -10 15 -14 15
-4 0 -11 12 -14 26 -4 14 -44 67 -89 118 -46 50 -97 111 -113 136 -45 66 -47
73 -89 357 -25 169 -45 217 -124 303 l-69 75 -88 6 c-49 3 -152 3 -229 0 -77
-3 -194 -6 -260 -6 -142 0 -150 3 -341 137 -159 111 -194 148 -252 265 -26 54
-70 130 -98 170 -81 118 -243 311 -281 334 -32 20 -42 21 -148 15 -79 -5 -120
-4 -135 4 -38 20 -60 86 -60 178 l0 84 -37 -6 c-38 -7 -129 13 -222 49 -47 17
-118 74 -137 109 -6 12 -14 76 -18 142 -10 195 -38 254 -129 280 -23 7 -96 32
-162 57 -245 91 -381 165 -408 222 -25 53 -21 79 29 198 25 60 56 136 69 170
94 252 120 323 156 430 23 67 52 145 65 172 12 28 30 93 39 145 9 52 19 98 21
102 8 13 31 9 45 -8 7 -9 63 -49 123 -90 61 -41 135 -94 164 -119 52 -44 72
-54 72 -36 0 5 -30 49 -66 98 -86 115 -134 212 -174 352 -30 104 -32 119 -22
175 14 86 36 136 61 136 13 0 42 -28 82 -77 70 -88 140 -163 150 -163 4 0 -6
27 -22 60 -33 64 -48 130 -31 130 6 0 32 -28 59 -62 35 -45 58 -87 78 -148 33
-102 66 -170 73 -152 2 8 0 24 -6 35 -14 31 -30 111 -38 185 -7 69 6 133 37
172 28 36 42 11 34 -62 -6 -57 1 -73 23 -59 14 9 52 134 52 172 0 49 17 57
125 61 l100 3 1 -83 c1 -90 9 -107 51 -107 35 0 51 -27 34 -58 -19 -35 -11
-58 29 -85 29 -19 44 -23 84 -19 41 4 54 10 78 38 49 58 60 87 60 159 0 46 -7
81 -20 111 -11 23 -18 48 -15 55 2 7 41 14 96 19 96 7 163 27 152 45 -3 6 -50
10 -108 10 -56 0 -108 4 -116 9 -15 10 -27 45 -62 191 -11 47 -27 108 -34 135
-15 55 -75 349 -83 405 l-4 35 26 -24 c14 -13 29 -34 32 -45 7 -22 98 -194
137 -258 12 -20 37 -62 56 -95 19 -32 56 -91 82 -131 27 -40 49 -77 49 -80 0
-4 20 -32 45 -62 25 -30 71 -89 102 -130 l58 -75 4 -185 c4 -188 -12 -537 -30
-665 -16 -111 -47 -269 -59 -300 -11 -30 -6 -59 9 -53 11 3 43 48 127 176 56
84 127 217 164 306 12 29 24 45 29 40 12 -13 17 -379 7 -492 -8 -86 -7 -92 9
-86 22 9 40 -19 41 -66 0 -19 6 -55 12 -80 6 -25 17 -105 23 -178 6 -73 13
-131 15 -130 3 3 10 79 19 202 6 72 11 90 25 81 4 -3 10 2 14 10 3 8 12 15 21
15 8 0 15 9 15 20 0 11 -7 20 -15 20 -8 0 -15 5 -15 10 0 6 -9 10 -20 10 -18
0 -19 2 -8 21 11 17 10 23 -9 38 -13 11 -32 17 -46 14 -35 -7 -41 20 -17 74
11 25 20 53 20 62 0 22 19 41 41 41 19 0 30 -30 22 -61 -5 -16 -8 -18 -15 -7
-7 9 -8 8 -6 -7 2 -11 13 -24 26 -30 12 -5 22 -18 22 -27 0 -11 7 -18 18 -18
12 0 23 -13 32 -35 8 -19 17 -35 22 -35 4 0 8 -9 8 -19 0 -11 6 -21 13 -24 9
-3 10 -13 1 -44 -6 -23 -7 -50 -2 -62 4 -13 5 -33 2 -45 -5 -23 20 -55 33 -42
4 4 2 11 -5 15 -19 12 -9 105 12 109 9 2 16 13 16 28 0 13 5 24 10 24 6 0 10
-11 10 -24 0 -14 5 -28 10 -31 6 -3 10 -17 10 -31 0 -13 5 -24 10 -24 6 0 10
-11 10 -25 0 -18 -5 -25 -20 -25 -21 0 -29 -33 -10 -45 6 -3 10 -17 10 -31 0
-13 5 -24 10 -24 6 0 10 -4 10 -10 0 -5 -7 -10 -16 -10 -9 0 -12 -5 -8 -12 10
-16 6 -96 -6 -118 -6 -11 -10 -29 -10 -42 1 -74 -2 -93 -15 -101 -20 -11 -19
-62 2 -82 25 -25 19 -134 -9 -153 -15 -11 -19 -23 -16 -53 2 -22 0 -39 -4 -39
-16 0 -19 -41 -4 -56 18 -17 22 -74 6 -74 -5 0 -10 -11 -10 -25 0 -16 -6 -25
-15 -25 -9 0 -15 -9 -15 -25 0 -52 -32 -23 -50 45 -7 25 -17 48 -23 52 -6 4
-12 26 -13 50 -1 24 -6 63 -11 88 -14 64 -10 246 5 243 7 -2 12 7 12 19 0 12
-3 18 -7 15 -3 -4 -12 -2 -20 4 -15 13 -18 49 -3 49 6 0 10 11 10 24 0 20 -4
24 -21 21 -12 -3 -23 -6 -24 -7 -2 -2 2 -84 7 -183 5 -99 11 -215 13 -258 2
-48 9 -86 19 -101 10 -16 13 -36 9 -61 -3 -20 0 -61 7 -91 12 -47 11 -68 -3
-152 -10 -53 -17 -146 -17 -207 0 -165 -18 -480 -30 -510 -5 -14 -11 -52 -12
-83 -2 -48 3 -69 33 -133 52 -109 72 -120 207 -122 59 -1 159 0 222 2 141 4
161 -4 227 -84 109 -133 149 -246 192 -541 17 -117 43 -164 119 -220 67 -50
155 -106 227 -145 22 -12 47 -27 55 -34 8 -7 47 -29 87 -49 l71 -36 164 0
c175 1 157 -3 259 59 12 8 29 2 70 -24 l54 -34 1110 -1 c611 0 1243 4 1405 10
300 9 508 15 933 26 l239 6 -7 -21 c-5 -15 -2 -21 9 -21 15 0 16 410 16 4385
l0 4385 -4575 0 -4575 0 0 -4385z m1757 1503 c44 -67 164 -207 322 -376 53
-57 118 -136 144 -175 27 -40 60 -86 73 -104 13 -17 24 -40 24 -51 0 -10 12
-25 28 -33 31 -15 132 -122 132 -139 0 -13 3 -13 -210 -10 -117 1 -190 6 -199
13 -9 8 -12 30 -9 76 4 64 3 67 -38 126 -23 33 -59 76 -78 94 -54 53 -51 63
43 140 22 18 39 37 36 41 -7 12 -92 -20 -191 -71 -114 -58 -122 -56 -122 43 0
39 -6 158 -13 263 -16 251 -11 267 58 163z m878 -1208 c7 -11 -12 -51 -29 -62
-21 -15 -76 -9 -76 7 0 40 86 85 105 55z m805 -1171 c0 -11 -4 -17 -10 -14 -5
3 -10 13 -10 21 0 8 5 14 10 14 6 0 10 -9 10 -21z"/>
<path d="M2816 4738 l-28 -43 27 25 c30 28 50 60 37 60 -5 0 -21 -19 -36 -42z"/>
</g>
</svg>
