<?xml version="1.0" standalone="no"?>
<!DOCTYPE svg PUBLIC "-//W3C//DTD SVG 20010904//EN"
 "http://www.w3.org/TR/2001/REC-SVG-20010904/DTD/svg10.dtd">
<svg version="1.0" xmlns="http://www.w3.org/2000/svg"
 width="220.000000pt" height="181.000000pt" viewBox="0 0 220.000000 181.000000"
 preserveAspectRatio="xMidYMid meet">

<g transform="translate(0.000000,181.000000) scale(0.100000,-0.100000)"
fill="#000000" stroke="none">
<path d="M2036 1573 c-3 -3 -302 -13 -502 -17 -89 -2 -165 -6 -170 -9 -5 -3
-38 -8 -74 -12 -36 -3 -72 -8 -81 -11 -10 -3 -30 -6 -45 -8 -98 -13 -203 -28
-229 -32 -16 -3 -46 -7 -65 -10 -84 -10 -96 -11 -115 -17 -11 -3 -37 -8 -59
-12 -21 -3 -43 -8 -50 -12 -6 -4 -83 -8 -171 -9 -88 -1 -176 -5 -195 -9 -61
-11 -82 -13 -183 -20 l-99 -8 5 -171 c8 -306 15 -383 37 -431 23 -50 67 -99
155 -171 202 -165 225 -174 446 -168 255 7 439 49 544 124 28 20 64 44 80 54
17 11 58 49 93 84 34 36 62 59 62 52 0 -10 5 -9 18 3 10 10 21 14 25 11 3 -4
13 1 22 10 11 11 25 14 43 10 40 -9 113 -45 134 -66 10 -10 25 -18 35 -18 9 0
14 -3 10 -6 -11 -11 47 -49 164 -107 64 -32 134 -60 155 -63 47 -6 64 -9 84
-17 8 -3 32 -8 53 -12 l37 -6 0 126 c0 76 -4 124 -9 120 -5 -3 -29 1 -53 10
-24 8 -50 15 -59 15 -9 0 -31 7 -50 16 -19 9 -53 26 -76 37 -44 21 -122 94
-127 118 -2 8 -8 25 -13 39 -6 14 -11 29 -11 34 0 5 -4 12 -9 15 -12 9 -33 59
-33 80 0 10 -7 24 -15 31 -8 7 -15 20 -15 30 0 10 -7 23 -15 30 -9 7 -14 15
-11 17 2 3 -4 23 -15 46 -10 23 -19 52 -19 65 l0 23 208 -5 c114 -3 233 -6
265 -8 l57 -3 0 118 c0 86 -3 117 -12 118 -25 3 -149 4 -152 2z m-787 -276 c6
-8 8 -16 5 -20 -3 -3 -1 -14 5 -25 7 -14 6 -24 -4 -40 -8 -11 -16 -36 -17 -56
-2 -20 -7 -36 -11 -36 -5 0 -5 -4 -2 -10 3 -5 1 -10 -5 -10 -6 0 -8 -4 -5 -10
3 -5 1 -10 -4 -10 -6 0 -11 -8 -11 -18 0 -17 -71 -119 -94 -135 -7 -5 -4 -7 8
-5 10 2 21 -3 24 -11 3 -8 0 -11 -7 -7 -6 4 -11 2 -11 -3 0 -6 -8 -10 -17 -9
-37 3 -53 -3 -53 -18 0 -8 -5 -12 -11 -9 -6 4 -8 13 -5 21 3 7 1 16 -4 19 -6
4 -10 11 -10 16 0 6 4 8 9 4 6 -3 6 6 1 25 -5 16 -5 32 -1 35 11 6 2 53 -12
62 -6 3 -7 1 -3 -5 4 -7 3 -12 -3 -12 -6 0 -7 14 -4 34 3 21 1 36 -7 41 -10 6
-12 2 -8 -13 4 -12 2 -20 -3 -16 -5 3 -9 16 -9 30 0 28 -27 58 -55 62 -49 7
-65 13 -65 27 0 9 -6 12 -15 9 -10 -4 -15 0 -15 15 0 12 0 24 -1 28 0 10 96
30 181 38 86 9 145 17 149 21 10 10 80 3 90 -9z m-659 -82 c36 0 68 -4 72 -10
15 -20 8 -31 -26 -45 -19 -7 -35 -16 -34 -19 2 -22 -17 -51 -29 -47 -8 3 -11
2 -8 -3 3 -5 1 -12 -5 -16 -5 -3 -10 -16 -10 -28 0 -16 -3 -18 -9 -8 -10 16
-20 3 -23 -32 -1 -14 -6 -23 -10 -21 -4 3 -8 -2 -8 -11 0 -11 -5 -15 -15 -11
-8 3 -14 2 -14 -2 3 -20 -2 -32 -14 -32 -9 0 -14 -14 -15 -41 -2 -37 3 -45 50
-87 28 -26 59 -55 69 -64 11 -10 24 -18 29 -18 17 0 11 -27 -7 -35 -10 -3 -36
-9 -58 -11 -22 -3 -50 -7 -62 -9 -13 -2 -25 1 -28 6 -4 5 -21 9 -39 9 -49 0
-96 23 -153 74 -38 35 -53 57 -63 93 -7 26 -17 54 -23 61 -6 8 -5 12 4 12 12
0 12 2 0 9 -9 6 -12 25 -10 65 2 31 1 56 -2 56 -3 0 -3 20 1 45 4 27 3 49 -4
56 -8 9 -8 10 2 5 6 -4 12 -2 12 3 0 6 -4 11 -10 11 -5 0 -10 7 -10 16 0 10 6
14 15 10 8 -3 15 -2 15 3 0 4 35 8 78 9 73 1 194 11 200 17 1 1 19 -1 40 -4
20 -3 66 -6 102 -6z m494 -347 c-3 -4 -9 -8 -15 -8 -5 0 -9 4 -9 8 0 5 7 9 15
9 8 0 12 -4 9 -9z"/>
<path d="M636 1192 c-3 -5 1 -9 9 -9 8 0 15 4 15 9 0 4 -4 8 -9 8 -6 0 -12 -4
-15 -8z"/>
<path d="M2167 1268 c6 -7 15 -26 21 -43 10 -30 10 -30 11 13 1 36 -2 42 -20
42 -16 0 -19 -3 -12 -12z"/>
<path d="M2163 1100 c5 -15 -17 -43 -26 -34 -3 3 -8 0 -13 -7 -4 -8 -3 -10 4
-5 7 4 12 3 12 -2 0 -6 -7 -12 -15 -16 -8 -3 -15 0 -15 6 0 7 -4 7 -14 -1 -10
-8 -16 -9 -21 -1 -3 6 -11 8 -16 5 -5 -4 -9 -2 -9 3 0 5 -7 9 -15 9 -8 0 -15
-6 -15 -14 0 -7 -4 -13 -10 -13 -11 0 -2 -28 16 -50 42 -51 142 -153 157 -162
17 -9 18 0 16 141 0 83 -5 149 -10 146 -4 -3 -6 -13 -3 -23 3 -9 -2 -6 -11 8
-9 14 -14 18 -12 10z"/>
<path d="M1048 254 c-34 -22 -38 -28 -38 -68 0 -39 5 -48 45 -85 70 -65 134
-101 176 -101 21 0 40 4 43 9 3 5 -1 29 -10 54 -14 42 -14 47 4 81 11 19 21
34 23 31 3 -2 5 4 5 15 0 13 -4 16 -12 9 -9 -7 -21 -2 -40 18 -16 15 -32 27
-36 25 -5 -1 -21 4 -36 11 -52 26 -84 27 -124 1z"/>
<path d="M1868 247 c-15 -18 -28 -37 -28 -44 0 -7 -8 -17 -17 -22 -15 -9 -15
-10 -2 -11 8 0 21 6 28 13 7 6 12 8 11 2 -5 -23 1 -36 12 -29 6 4 8 3 5 -3
-10 -16 18 -76 42 -91 12 -7 21 -20 21 -30 0 -14 2 -15 10 -2 8 12 10 11 10
-7 0 -21 4 -23 60 -23 92 0 140 37 133 99 -3 28 -17 48 -59 89 -102 97 -177
117 -226 59z"/>
</g>
</svg>
