<?xml version="1.0" standalone="no"?>
<!DOCTYPE svg PUBLIC "-//W3C//DTD SVG 20010904//EN"
 "http://www.w3.org/TR/2001/REC-SVG-20010904/DTD/svg10.dtd">
<svg version="1.0" xmlns="http://www.w3.org/2000/svg"
 width="512.000000pt" height="512.000000pt" viewBox="0 0 512.000000 512.000000"
 preserveAspectRatio="xMidYMid meet">

<g transform="translate(0.000000,512.000000) scale(0.100000,-0.100000)"
fill="#000000" stroke="none">
<path d="M0 2560 l0 -2560 2560 0 2560 0 0 2560 0 2560 -2560 0 -2560 0 0
-2560z m1742 1338 c-15 -15 -24 -6 -16 16 5 12 10 14 17 7 8 -8 8 -14 -1 -23z
m2066 -898 c9 0 9 -5 -2 -22 -8 -13 -14 -27 -13 -32 1 -5 -8 -10 -20 -11 -24
-2 -32 20 -10 28 7 4 8 6 1 6 -7 1 -30 -17 -52 -39 -57 -58 -62 -32 -5 30 36
39 52 50 68 46 11 -3 26 -6 33 -6z m112 -370 c0 -5 -4 -10 -10 -10 -5 0 -10 5
-10 10 0 6 5 10 10 10 6 0 10 -4 10 -10z m-643 -161 c10 -9 10 -15 2 -25 -15
-19 -29 -17 -56 5 -34 28 -30 45 9 37 17 -3 37 -11 45 -17z m157 -225 c26 -10
18 -19 -29 -33 -25 -7 -49 -18 -53 -25 -4 -6 -39 -22 -79 -34 -60 -19 -74 -28
-85 -52 -7 -17 -20 -30 -29 -30 -9 0 -24 -9 -34 -20 -10 -11 -26 -20 -37 -20
-10 0 -18 -4 -18 -10 0 -5 -8 -10 -18 -10 -10 0 -28 -14 -41 -31 -12 -16 -33
-35 -47 -41 -36 -17 -32 -63 9 -110 19 -21 38 -38 43 -38 5 -1 21 -11 36 -23
20 -17 25 -26 17 -37 -8 -13 -11 -13 -20 3 -12 20 -69 23 -101 6 -11 -6 -47
-11 -79 -11 -33 0 -59 -4 -59 -10 0 -5 -4 -6 -10 -3 -5 3 -17 -3 -27 -15 -10
-11 -30 -20 -45 -20 -15 0 -30 -5 -34 -11 -8 -13 -76 -43 -161 -70 -35 -12
-63 -25 -63 -30 0 -20 -26 -7 -37 19 -15 34 -16 164 -2 196 6 13 22 29 35 34
12 6 30 22 39 36 21 31 142 93 255 131 47 15 132 50 189 76 57 27 107 49 112
49 5 0 9 5 9 10 0 6 5 10 12 10 6 0 30 8 52 19 23 10 73 30 111 46 39 15 84
33 100 41 32 15 64 18 89 8z m-2124 -79 c0 -3 -20 -10 -45 -16 -44 -11 -45
-12 -29 -30 12 -14 18 -41 20 -99 3 -74 1 -80 -17 -80 -11 0 -19 -7 -19 -16 0
-13 -8 -15 -38 -10 -54 7 -133 35 -161 57 -31 24 -161 28 -161 5 0 -24 -30
-46 -63 -46 -39 0 -198 -55 -208 -72 -8 -12 -23 -5 -25 13 -3 22 -5 23 -14 9
-5 -8 -10 -24 -10 -36 0 -13 -10 -25 -26 -33 -30 -13 -34 -11 -37 17 -2 29
-13 18 -21 -20 -5 -26 -9 -30 -16 -18 -8 12 -14 10 -40 -15 -36 -34 -38 -24
-7 28 22 37 33 45 104 82 18 9 37 23 44 31 6 8 15 14 19 14 5 0 37 16 72 37
34 20 92 52 128 71 36 19 76 41 90 50 63 41 129 65 200 72 88 9 260 12 260 5z
m3028 -387 c21 -21 14 -24 -65 -27 -43 -1 -81 -5 -85 -7 -5 -3 -73 -7 -151
-10 -78 -2 -171 -7 -207 -11 -36 -4 -91 -6 -124 -5 -44 2 -63 -1 -78 -15 -16
-14 -23 -15 -38 -5 -11 7 -34 12 -52 12 -18 0 -46 7 -62 15 -15 8 -34 15 -41
15 -7 0 -19 7 -26 17 -13 15 -10 15 26 9 47 -9 262 -9 277 0 5 3 125 9 266 13
141 4 277 9 303 9 25 1 50 -3 57 -10z m-1134 -33 c-10 -8 -35 -14 -54 -14
l-35 0 30 14 c17 7 41 14 54 14 24 1 24 1 5 -14z m-2824 -23 c0 -10 -6 -27
-14 -38 -13 -17 -15 -17 -21 -2 -7 18 10 58 25 58 6 0 10 -8 10 -18z m60 -67
c-29 -17 -50 -19 -50 -6 0 5 10 12 23 14 44 8 52 6 27 -8z m-120 -35 c0 -5 -5
-10 -11 -10 -5 0 -7 5 -4 10 3 6 8 10 11 10 2 0 4 -4 4 -10z m2088 -88 c2 -7
-12 -27 -32 -46 -20 -18 -36 -37 -36 -43 0 -23 -71 -72 -134 -93 -36 -12 -69
-26 -72 -32 -10 -16 -24 12 -24 48 0 17 10 46 23 65 13 19 26 42 30 52 8 22
43 36 127 52 78 15 112 14 118 -3z m-422 -244 c-18 -29 -36 -72 -39 -95 -9
-53 -64 -112 -113 -120 -27 -4 -34 -2 -34 11 0 22 -23 20 -45 -4 -10 -11 -24
-20 -30 -20 -7 0 -20 -11 -29 -25 -9 -14 -36 -37 -59 -51 -23 -15 -46 -33 -50
-41 -13 -21 -29 -4 -23 23 7 27 -5 32 -24 9 -7 -8 -19 -15 -26 -15 -8 0 -19
-9 -26 -20 -7 -11 -18 -20 -25 -20 -19 0 -16 18 5 24 9 3 31 18 47 34 17 15
44 36 60 46 17 11 55 40 85 66 30 26 87 68 125 93 39 26 102 71 140 101 39 30
76 55 82 55 7 1 -2 -22 -21 -51z m-566 -392 c0 -2 -7 -6 -15 -10 -8 -3 -15 -1
-15 4 0 6 7 10 15 10 8 0 15 -2 15 -4z m-90 -66 c-18 -17 -35 -28 -39 -25 -3
4 10 19 29 35 45 37 52 30 10 -10z m-458 -321 c-23 -22 -42 -46 -42 -54 0 -8
-9 -15 -20 -15 -13 0 -20 -7 -20 -20 0 -14 -9 -21 -33 -25 -22 -4 -38 -16 -49
-36 -9 -16 -24 -29 -31 -29 -8 0 -17 -9 -20 -21 -6 -22 -37 -24 -44 -3 -5 14
76 94 95 94 6 0 12 7 12 15 0 8 4 15 8 15 4 0 46 29 92 64 46 36 86 63 89 60
3 -2 -14 -22 -37 -45z m-459 -45 c-4 -10 1 -17 16 -21 27 -7 26 -12 -4 -45
-27 -29 -32 -54 -13 -60 9 -3 8 -12 -5 -31 -9 -14 -17 -33 -17 -42 0 -8 -9
-15 -20 -15 -11 0 -27 -12 -37 -27 -9 -16 -29 -40 -44 -55 l-28 -27 -5 27 c-4
15 -1 61 4 102 6 41 14 96 17 123 6 54 7 54 71 72 65 17 72 17 65 -1z m4587
-114 c0 -5 -7 -10 -16 -10 -8 0 -12 5 -9 10 3 6 10 10 16 10 5 0 9 -4 9 -10z
m60 -45 c14 -16 10 -18 -14 -9 -9 3 -16 10 -16 15 0 14 16 11 30 -6z m-4460
-14 c0 -6 -4 -13 -10 -16 -5 -3 -10 -13 -10 -21 0 -13 -73 -94 -86 -94 -3 0
-20 -10 -37 -22 -35 -25 -62 -34 -52 -18 3 6 11 8 16 5 5 -4 9 -2 9 4 0 6 -15
7 -35 4 -55 -9 -45 20 13 37 26 7 60 26 75 42 16 15 33 28 38 28 5 0 9 6 9 13
0 6 12 19 28 29 32 19 42 21 42 9z m-235 -181 c3 -6 -4 -10 -17 -10 -18 0 -20
2 -8 10 19 12 18 12 25 0z m-60 -20 c-3 -5 -15 -10 -26 -10 -10 0 -19 5 -19
10 0 6 12 10 26 10 14 0 23 -4 19 -10z m4552 -37 c-14 -15 -29 -24 -33 -21 -3
4 6 18 21 33 37 33 47 22 12 -12z"/>
<path d="M1160 1970 c0 -5 5 -10 10 -10 6 0 10 5 10 10 0 6 -4 10 -10 10 -5 0
-10 -4 -10 -10z"/>
</g>
</svg>
