<?xml version="1.0" standalone="no"?>
<!DOCTYPE svg PUBLIC "-//W3C//DTD SVG 20010904//EN"
 "http://www.w3.org/TR/2001/REC-SVG-20010904/DTD/svg10.dtd">
<svg version="1.0" xmlns="http://www.w3.org/2000/svg"
 width="225.000000pt" height="230.000000pt" viewBox="0 0 225.000000 230.000000"
 preserveAspectRatio="xMidYMid meet">

<g transform="translate(0.000000,230.000000) scale(0.100000,-0.100000)"
fill="#000000" stroke="none">
<path d="M107 2293 c-4 -3 -2 -12 4 -20 8 -9 8 -17 1 -25 -6 -7 -13 -30 -17
-50 -4 -21 -11 -38 -16 -38 -5 0 -3 -12 3 -26 7 -16 8 -28 2 -32 -12 -9 -34
-73 -34 -98 0 -10 7 -27 14 -36 9 -12 12 -40 10 -85 -2 -38 1 -99 7 -138 11
-84 17 -325 7 -325 -4 0 -6 -18 -6 -40 0 -22 -5 -47 -12 -55 -12 -14 -15 -14
-30 0 -22 20 -33 19 -21 -2 5 -10 17 -50 26 -90 16 -65 19 -71 36 -62 17 8 18
6 13 -20 -4 -16 -1 -31 5 -35 6 -4 11 -18 11 -32 0 -13 4 -24 10 -24 5 0 9 8
8 18 -3 23 17 157 43 282 8 44 11 63 24 200 4 36 13 92 20 125 10 42 12 79 6
125 -5 36 -6 71 -3 78 3 8 -1 10 -13 6 -15 -6 -16 -2 -10 33 6 36 4 41 -17 47
-22 6 -22 7 -5 20 10 8 17 20 16 28 -3 16 11 51 25 60 5 3 11 15 12 25 2 10 7
45 12 78 5 33 8 63 6 67 -3 4 0 9 6 13 5 3 10 13 10 21 0 11 -16 14 -73 14
-41 0 -77 -3 -80 -7z m35 -355 c-7 -7 -12 -8 -12 -2 0 14 12 26 19 19 2 -3 -1
-11 -7 -17z"/>
<path d="M1975 2289 c-7 -10 27 -55 54 -73 10 -6 11 -22 6 -61 -5 -42 -3 -54
9 -58 9 -4 16 -12 16 -19 0 -9 -3 -9 -12 0 -16 16 -30 15 -26 0 3 -19 -12 -58
-23 -58 -5 0 -7 -11 -3 -25 3 -14 2 -25 -3 -25 -8 0 -10 -39 -4 -65 2 -5 2
-31 1 -56 -1 -26 4 -50 9 -54 6 -3 9 -11 5 -16 -3 -6 2 -19 11 -29 13 -14 16
-31 12 -69 -3 -27 -8 -54 -11 -60 -7 -11 27 -51 43 -51 5 0 12 6 14 13 3 6 6
1 6 -13 0 -37 22 -140 29 -140 4 0 8 -19 9 -42 2 -64 9 -100 26 -132 9 -16 13
-35 10 -42 -3 -8 0 -14 7 -14 7 0 10 -8 7 -20 -3 -11 -2 -20 3 -20 13 0 20
-44 8 -51 -6 -4 -11 -27 -12 -52 -1 -25 -7 -51 -12 -59 -6 -7 -11 -35 -12 -62
-1 -37 -7 -54 -26 -71 -24 -22 -24 -24 -7 -39 17 -16 17 -19 2 -50 -12 -25
-19 -31 -29 -23 -7 5 -16 7 -19 3 -4 -4 -3 -10 3 -14 6 -4 10 -25 11 -47 0
-22 -2 -34 -4 -27 -3 6 -11 12 -18 12 -16 0 -28 -46 -17 -66 6 -12 2 -23 -15
-40 -14 -14 -23 -35 -23 -53 0 -16 -6 -32 -12 -34 -8 -3 -6 -6 5 -6 28 -2 19
-16 -19 -31 -34 -14 -36 -17 -31 -52 5 -37 -8 -55 -15 -21 -3 15 -4 15 -20 -1
-18 -18 -38 -14 -38 7 0 7 -9 13 -20 14 -16 1 -20 -4 -20 -28 0 -33 -14 -37
-48 -13 -12 8 -27 12 -33 8 -8 -4 -9 3 -4 26 6 29 5 31 -14 25 -12 -4 -21 -2
-21 4 0 6 5 11 10 11 7 0 7 7 0 20 -6 11 -8 26 -4 32 4 6 3 8 -3 5 -6 -4 -13
0 -17 8 -3 9 -18 15 -36 15 -16 0 -30 5 -30 10 0 17 -51 60 -70 60 -10 0 -21
-8 -25 -17 -6 -16 -8 -15 -16 4 -6 16 -17 23 -34 23 -17 0 -29 7 -35 23 -8 20
-9 20 -10 2 -1 -15 -7 -9 -22 20 -12 22 -21 44 -19 49 7 27 -11 56 -34 56 -14
0 -29 8 -35 20 -6 11 -17 20 -26 20 -8 0 -26 7 -39 16 -14 9 -25 12 -25 6 0
-24 -133 -34 -240 -17 -19 3 -41 2 -48 -3 -13 -9 -52 -111 -52 -138 0 -10 -3
-15 -6 -11 -3 3 -18 -5 -32 -18 -23 -21 -24 -26 -11 -41 12 -15 12 -17 -1 -12
-8 3 -29 -1 -46 -8 -18 -8 -47 -11 -68 -7 -22 3 -36 2 -36 -5 0 -6 -8 -18 -17
-28 -13 -13 -14 -19 -5 -22 6 -2 12 -10 12 -18 0 -7 -6 -11 -14 -8 -15 6 -66
-36 -66 -55 0 -6 -7 -14 -15 -17 -10 -4 -13 -14 -9 -30 9 -34 -12 -55 -45 -47
-25 6 -26 6 -8 -14 15 -18 16 -21 3 -26 -9 -4 -18 -1 -22 4 -3 6 -17 9 -30 6
-15 -3 -24 0 -24 9 0 18 -36 27 -60 14 -15 -8 -26 -7 -45 6 -23 15 -29 28 -28
62 1 6 -3 12 -8 12 -5 0 -9 7 -9 15 0 8 -7 15 -15 15 -15 0 -40 48 -30 58 3 3
-3 14 -12 24 -13 14 -14 21 -5 30 16 16 15 38 -1 38 -27 0 -48 -39 -41 -78 4
-20 11 -43 16 -49 6 -7 8 -19 5 -27 -3 -8 0 -20 8 -26 7 -6 15 -24 17 -40 4
-23 -5 -40 -45 -86 -51 -60 -107 -141 -147 -212 -22 -40 -25 -41 -42 -25 -17
15 -18 15 -18 -5 l0 -22 449 0 c350 0 450 3 454 13 4 9 6 9 6 0 1 -10 142 -13
671 -13 l670 0 0 129 0 128 -34 44 c-19 24 -43 52 -54 61 -20 16 -20 19 -5 48
8 17 17 50 20 73 3 23 9 47 14 52 4 6 7 29 6 52 -1 31 5 48 27 74 23 27 26 35
13 37 -13 3 -15 17 -11 95 2 50 9 107 14 127 13 52 11 1091 -2 1108 -8 9 -8
16 0 24 16 16 15 68 0 68 -9 0 -8 4 2 11 11 8 12 12 3 16 -7 2 -13 21 -13 42
0 20 -7 47 -16 59 -22 32 -9 41 15 11 l20 -24 1 33 0 32 -134 0 c-85 0 -137
-4 -141 -11z m251 -1316 c-7 -7 -26 7 -26 19 0 6 6 6 15 -2 9 -7 13 -15 11
-17z m-786 -411 c0 -12 -3 -12 -15 -2 -8 7 -15 13 -15 15 0 1 7 2 15 2 8 0 15
-7 15 -15z m81 -16 c16 -14 25 -27 20 -31 -5 -3 -12 -1 -16 4 -3 6 -11 8 -18
6 -19 -7 -41 11 -34 29 8 21 14 20 48 -8z m-266 -39 c0 -31 2 -32 40 -32 36 0
40 -3 38 -22 -2 -13 2 -23 7 -23 6 0 19 -9 30 -20 19 -19 19 -19 -13 -13 -18
3 -33 10 -35 15 -2 4 -10 8 -18 8 -8 0 -14 5 -14 10 0 14 -37 13 -63 -2 -31
-17 -89 -38 -108 -38 -9 0 -22 7 -29 15 -11 14 -15 14 -33 -2 -11 -10 -17 -13
-14 -6 10 16 -34 46 -47 33 -18 -18 -26 -11 -15 13 7 15 19 23 32 23 15 -1 23
6 25 21 l3 23 22 -25 c17 -20 34 -26 77 -29 66 -5 100 18 100 67 0 17 3 27 7
23 4 -4 7 -21 8 -39z m325 13 c0 -5 -5 -10 -11 -10 -5 0 -7 5 -4 10 3 6 8 10
11 10 2 0 4 -4 4 -10z m338 -188 c6 -18 -15 -14 -22 4 -4 10 -1 14 6 12 6 -2
14 -10 16 -16z m-541 -84 c12 -3 27 -1 32 6 9 10 30 12 79 7 6 0 12 -5 12 -11
0 -5 -7 -7 -15 -4 -8 4 -15 2 -15 -4 0 -14 24 -22 49 -15 12 3 21 1 21 -6 0
-6 -3 -10 -7 -10 -24 4 -43 -2 -38 -12 4 -6 13 -8 20 -5 9 3 16 -8 20 -34 8
-47 0 -63 -27 -54 -17 5 -19 3 -14 -14 4 -11 2 -23 -4 -27 -16 -10 -48 4 -55
25 -3 10 -17 30 -32 44 l-26 26 -33 -25 c-18 -14 -35 -22 -37 -18 -8 12 -171
8 -276 -7 -85 -12 -95 -12 -106 3 -7 10 -16 17 -20 17 -4 0 -2 -6 4 -13 6 -8
8 -17 4 -20 -11 -12 -23 -8 -23 8 0 13 -4 14 -20 5 -11 -6 -20 -17 -20 -25 0
-8 -4 -15 -10 -15 -5 0 -10 -7 -10 -15 0 -25 -24 -17 -52 19 -28 34 -38 63
-18 51 6 -3 10 0 10 8 0 8 7 28 15 43 8 16 15 25 15 21 0 -5 13 1 29 12 31 23
62 27 100 15 17 -5 22 -4 17 4 -5 8 0 12 13 12 11 0 23 5 27 12 5 8 11 6 20
-6 8 -11 14 -13 19 -7 4 7 13 8 23 2 21 -10 177 -3 177 9 0 0 24 2 53 4 39 2
52 0 52 -10 0 -8 5 -14 11 -14 6 0 8 9 4 23 -3 12 -3 17 2 11 4 -6 18 -13 30
-16z m-837 -18 c0 -5 -4 -10 -9 -10 -6 0 -13 5 -16 10 -3 6 1 10 9 10 9 0 16
-4 16 -10z m346 -209 c-7 -11 -46 -2 -46 11 0 5 6 15 12 22 11 11 15 10 26 -5
7 -11 11 -23 8 -28z"/>
<path d="M1415 160 c3 -5 8 -10 11 -10 2 0 4 5 4 10 0 6 -5 10 -11 10 -5 0 -7
-4 -4 -10z"/>
<path d="M780 105 c-8 -9 -8 -15 -2 -15 12 0 26 19 19 26 -2 2 -10 -2 -17 -11z"/>
<path d="M551 1662 c-6 -2 -9 -8 -6 -12 7 -11 -59 -30 -102 -30 -17 0 -38 -7
-47 -15 -8 -9 -22 -12 -33 -9 -14 5 -12 0 8 -20 26 -28 59 -28 59 0 0 20 17
17 25 -3 6 -17 7 -17 16 -1 7 13 20 16 66 12 31 -3 61 -8 65 -10 15 -10 8 -29
-15 -40 -80 -40 -127 -71 -164 -106 -23 -23 -41 -44 -39 -47 2 -3 0 -16 -5
-28 -5 -15 -14 -20 -28 -16 -22 6 -29 -11 -10 -23 23 -14 108 -12 113 2 3 8
15 14 26 14 14 0 20 7 20 21 0 28 18 59 34 59 8 0 19 -14 25 -32 17 -48 40
-68 78 -68 53 0 94 57 80 110 -7 26 22 27 54 1 32 -24 109 -61 109 -52 0 5 -9
16 -20 26 -25 23 -26 38 -1 30 11 -3 28 -8 38 -10 10 -2 29 -7 42 -11 23 -7
24 -6 17 32 -10 57 -16 74 -27 74 -14 0 -11 28 4 33 6 3 2 6 -10 6 -13 1 -23
7 -23 14 0 21 -107 69 -173 78 -34 4 -85 12 -113 17 -28 4 -56 6 -63 4z m119
-170 c0 -4 -24 -8 -52 -9 -38 -1 -47 1 -33 7 25 11 85 13 85 2z m51 -2 c6 0 8
-4 5 -9 -8 -12 -46 -2 -46 11 0 6 7 7 16 4 9 -3 20 -6 25 -6z m-43 -67 c2 -8
-6 -13 -22 -13 -17 0 -26 5 -26 16 0 19 41 16 48 -3z m-8 -73 c0 -5 -9 -10
-20 -10 -11 0 -20 5 -20 10 0 6 9 10 20 10 11 0 20 -4 20 -10z"/>
<path d="M1678 1650 c-15 -4 -70 -10 -122 -14 -53 -3 -106 -11 -119 -18 -12
-7 -26 -11 -31 -10 -12 4 -37 -19 -30 -29 3 -5 -5 -8 -18 -6 -20 2 -23 -2 -20
-25 1 -16 -1 -28 -6 -28 -5 0 -10 -33 -11 -72 -1 -65 1 -71 13 -55 8 10 29 23
48 27 18 5 44 12 58 16 22 5 20 2 -13 -26 -29 -24 -35 -35 -27 -44 8 -8 14 -6
21 7 6 9 16 17 23 17 7 0 28 14 46 30 45 40 60 39 60 -6 0 -26 8 -43 29 -65
37 -37 62 -37 103 0 26 23 32 36 31 65 -1 20 1 36 4 36 14 0 53 -57 53 -77 0
-14 6 -23 15 -23 8 0 24 -6 35 -12 17 -11 22 -10 29 0 6 10 12 6 25 -14 15
-22 20 -24 31 -13 7 8 15 29 19 47 5 28 3 35 -13 39 -11 3 -22 11 -25 19 -3 8
-12 14 -20 14 -9 0 -20 8 -25 18 -10 19 -124 82 -147 82 -31 0 -11 30 31 45
37 15 50 16 74 5 26 -10 32 -9 52 9 12 11 21 22 18 23 -37 23 -60 32 -89 35
-19 2 -44 5 -55 7 -11 2 -32 0 -47 -4z m-61 -146 c-3 -3 -12 -4 -19 -1 -8 3
-5 6 6 6 11 1 17 -2 13 -5z m23 -62 c0 -4 -9 -8 -20 -8 -11 0 -20 4 -20 8 0 4
9 8 20 8 11 0 20 -4 20 -8z m251 -59 c13 -16 12 -17 -3 -4 -17 13 -22 21 -14
21 2 0 10 -8 17 -17z m-251 -23 c0 -5 -9 -6 -20 -3 -11 3 -17 9 -15 14 7 10
35 1 35 -11z"/>
<path d="M1911 1583 c-1 -16 -6 -21 -16 -17 -8 4 -15 1 -15 -5 0 -16 30 -13
36 4 3 8 4 20 1 27 -3 7 -6 3 -6 -9z"/>
<path d="M335 1540 c3 -5 10 -10 16 -10 5 0 9 5 9 10 0 6 -7 10 -16 10 -8 0
-12 -4 -9 -10z"/>
<path d="M1950 1540 c0 -5 5 -10 11 -10 5 0 7 5 4 10 -3 6 -8 10 -11 10 -2 0
-4 -4 -4 -10z"/>
<path d="M2050 1529 c0 -5 5 -7 10 -4 6 3 10 8 10 11 0 2 -4 4 -10 4 -5 0 -10
-5 -10 -11z"/>
<path d="M1935 1340 c-3 -5 -1 -10 4 -10 6 0 11 5 11 10 0 6 -2 10 -4 10 -3 0
-8 -4 -11 -10z"/>
<path d="M2140 1150 c6 -11 13 -20 16 -20 2 0 0 9 -6 20 -6 11 -13 20 -16 20
-2 0 0 -9 6 -20z"/>
<path d="M110 905 c0 -36 13 -47 24 -19 11 28 6 54 -9 54 -10 0 -15 -11 -15
-35z"/>
<path d="M2082 925 c9 -10 21 -16 28 -13 7 2 -1 10 -16 17 -27 12 -28 11 -12
-4z"/>
<path d="M119 851 c-21 -5 -24 -10 -18 -31 4 -14 8 -20 8 -15 3 24 21 -24 21
-56 0 -40 33 -82 43 -56 3 8 1 20 -3 27 -5 8 -4 22 1 31 14 26 11 50 -5 47 -8
-2 -14 2 -13 7 1 6 8 9 15 9 13 -2 15 6 6 30 -6 17 -13 18 -55 7z"/>
<path d="M1922 741 c-8 -5 -12 -19 -9 -32 l4 -24 8 23 c4 12 11 22 16 22 5 0
9 5 9 10 0 12 -10 13 -28 1z"/>
<path d="M190 725 c0 -8 5 -15 10 -15 6 0 10 7 10 15 0 8 -4 15 -10 15 -5 0
-10 -7 -10 -15z"/>
<path d="M180 682 c0 -13 -6 -22 -15 -22 -19 0 -19 -3 4 -45 16 -30 20 -33 31
-20 7 8 10 21 7 29 -3 7 -1 18 5 24 7 7 4 17 -11 33 l-21 23 0 -22z"/>
<path d="M2000 626 c0 -9 5 -16 10 -16 6 0 10 4 10 9 0 6 -4 13 -10 16 -5 3
-10 -1 -10 -9z"/>
<path d="M480 350 c0 -5 5 -10 11 -10 5 0 7 5 4 10 -3 6 -8 10 -11 10 -2 0 -4
-4 -4 -10z"/>
</g>
</svg>
